<svg id="Capa_1" enable-background="new 0 0 497 497" height="512" viewBox="0 0 497 497" width="512" xmlns="http://www.w3.org/2000/svg"><g><path d="m434.207 47.455c-52.27-27.288-116.402-43.36-185.707-43.36s-133.437 16.072-185.707 43.36c-44.286 23.12-69.028 71.781-61.434 121.157l36.118 234.856c7.913 51.453 52.184 89.437 104.242 89.437h213.563c52.058 0 96.329-37.983 104.242-89.437l36.118-234.856c7.593-49.376-17.149-98.037-61.435-121.157z" fill="#b2b0bc"/><path d="m380.504 254.305h-264.008c-25.452 0-44.916 22.686-41.048 47.843l14.345 93.279c3.97 25.811 25.811 44.549 51.928 44.549h213.557c26.118 0 47.958-18.739 51.928-44.549l14.345-93.279c3.87-25.157-15.594-47.843-41.047-47.843z" fill="#5c586f"/><g><g><g><ellipse cx="146.938" cy="364.617" fill="#ff9db0" rx="37.474" ry="29.843"/></g><g><ellipse cx="350.062" cy="364.617" fill="#ff9db0" rx="37.474" ry="29.843"/></g></g></g><g><path d="m168.778 343.39c-4.142 0-7.5-3.358-7.5-7.5v-15.32c0-4.142 3.358-7.5 7.5-7.5s7.5 3.358 7.5 7.5v15.319c0 4.143-3.358 7.501-7.5 7.501z" fill="#423e4f"/></g><g><path d="m328.222 343.39c-4.142 0-7.5-3.358-7.5-7.5v-15.32c0-4.142 3.358-7.5 7.5-7.5s7.5 3.358 7.5 7.5v15.319c0 4.143-3.358 7.501-7.5 7.501z" fill="#423e4f"/></g><g><path d="m248.5 352.509c-10.223 0-19.945-4.428-26.672-12.148-2.721-3.123-2.396-7.86.727-10.582 3.123-2.721 7.86-2.396 10.582.727 3.878 4.45 9.478 7.002 15.364 7.002s11.486-2.552 15.364-7.002c2.721-3.124 7.459-3.448 10.582-.727s3.448 7.459.727 10.582c-6.729 7.72-16.451 12.148-26.674 12.148z" fill="#423e4f"/></g><path d="m364.31 75.201c-35.863-11.958-75.137-18.17-115.81-18.17s-79.948 6.212-115.81 18.17c-17.736 5.914-27.363 25.045-21.515 42.803l21.061 63.955c4.581 13.91 17.571 23.308 32.215 23.308h54.642l29.407-15.541 29.407 15.541h54.642c14.644 0 27.635-9.399 32.215-23.308l21.061-63.955c5.849-17.759-3.778-36.889-21.515-42.803z" fill="#fff"/><g fill="#423e4f"><path d="m248.5 57.031c-2.506 0-5.006.025-7.5.072v30.624c0 4.142 3.358 7.5 7.5 7.5s7.5-3.358 7.5-7.5v-30.625c-2.494-.046-4.994-.071-7.5-.071z"/><path d="m156.621 68.547 8.21 28.334c1.162 4.012 5.347 6.26 9.291 5.116 3.979-1.153 6.269-5.313 5.116-9.291l-8.067-27.84c-4.922 1.026-9.797 2.15-14.623 3.373.026.103.043.206.073.308z"/><path d="m340.452 68.239c-4.826-1.223-9.701-2.348-14.623-3.373l-8.067 27.84c-1.153 3.979 1.138 8.138 5.116 9.291 3.966 1.15 8.135-1.126 9.291-5.116l8.21-28.334c.03-.102.047-.205.073-.308z"/></g><path d="m258.801 131.621c-1.217-4.693-5.453-7.97-10.301-7.97s-9.084 3.277-10.301 7.97l-19.106 73.647h58.814z" fill="#ff748f"/><path d="m57.561 239.351c0-89.117 12.789-168.234 69.729-217.914-22.971 6.87-44.596 15.628-64.497 26.017-44.285 23.121-69.028 71.782-61.434 121.158l36.118 234.856c7.913 51.453 52.184 89.437 104.242 89.437h22.61c-78.322-29.115-106.768-98.84-106.768-253.554z" fill="#a19dae"/></g></svg>