<svg id="Layer_1" enable-background="new 0 0 496 496" height="512" viewBox="0 0 496 496" width="512" xmlns="http://www.w3.org/2000/svg"><path d="m453.37 104.78s21.115-40.071-7.402-81.918c-26.575-30.862-76.545-1.496-76.545-1.496s-44.495-47.152-84.642-1.362c0 0-24.815-26.217-73.499.282-15.389-18.492-49.296-26.018-73.943-2.595-67.811-27.462-81.16 45.489-81.16 45.489-55.677 25.818-18.545 85.968-18.545 85.968-42.654 52.94 15.493 89.432 15.493 89.432-21.186 17.234-4.627 86.726 49.109 73.963 10.803-2.566-12.816 45.761 6.408 58.856 7.482 5.097 16.635 5.776 23.27-.383 13.742-12.756-4.129-54.11 5.211-64.88 17.597-20.291 11.671-86.183-36.361-97.633 0 0 26.266-32.599-4.056-80.929 0 0 28.248-11.556 21.719-46.371 0 0 30.627 27.206 70.058 10.468 0 0 41.125 25.765 82.042-5.752 0 0 62.089 29.272 99.675-5.083 0 0-10.254 49.944 27.921 67.637 0 0-20.543 28.501-7.295 70.91-32.464 14.344-38.104 39.675-30.069 71.878-40.075 9.085-41.882 31.687-46.177 43.757-63.58-41.121-96.124-5.026-110.009 14.155-36.455 50.362 20.598 146.827 20.598 146.827h26.026c30.518-34.051 29.022-96.465 29.022-96.465s62.071 40.57 87.98-27.85c0 0 75.736-2.244 64.678-82.395 0 0 51.604-33.181 32.274-93.441-.001 0 26.3-48.019-11.781-91.069z" fill="#ff5a7f"/><ellipse cx="426.686" cy="222.011" fill="#d04d7f" rx="11.331" ry="7.123" transform="matrix(.411 -.912 .912 .411 48.916 519.734)"/><path d="m112.104 212.549c14.653 24.416 13.376 58.17 1.653 71.689-10.705 12.344 14.062 63.178-12.911 68.917.245 7.647 2.209 14.435 7.799 18.244 7.482 5.097 16.635 5.776 23.27-.383 13.741-12.756-4.129-54.109 5.211-64.88 16.101-18.567 12.501-75.303-25.022-93.587z" fill="#de4d7f"/><g fill="#d04d7f"><path d="m453.37 104.78s21.115-40.071-7.402-81.918c-5.098-5.92-11.058-9.618-17.36-11.738 9.881 19.521 9.964 37.949 7.715 51.242-2.244 13.263.146 26.802 6.177 38.826 11.709 23.347 8.478 45.975 4.423 59.637-2.638 8.885-3.141 18.264-1.744 27.427 4.505 29.557-8.087 51.367-19.533 64.521-8.938 10.272-14.261 23.141-15.284 36.719-2.657 35.256-25.928 49.916-43.992 55.999-12.662 4.264-23.639 12.38-31.38 23.269-9.66 13.589-21.52 19.133-33.053 20.476-24.815 2.889-45.686 19.76-52.725 43.73-4.29 14.609-10.974 29.521-21.382 41.133h-13.859c6.141 13.341 11.2 21.897 11.2 21.897h26.026c30.519-34.051 29.022-96.465 29.022-96.465s62.072 40.57 87.98-27.85c0 0 75.736-2.244 64.678-82.395 0 0 51.604-33.181 32.274-93.441-.001 0 26.3-48.019-11.781-91.069z"/><path d="m270.528 85.918s41.765 19.683 77.523 7.81c-1.14-4.283-1.801-8.529-2.146-12.504-.746-8.587-9.623-13.883-17.631-10.694-23.442 9.335-50.243 3.989-66.412-1.028-8.825-2.738-18.414-2.111-26.606 2.163-24.308 12.682-47.247 7.695-59.926 2.908-6.699-2.53-13.979-2.923-20.935-1.221-15.296 3.742-28.801 1.307-39.048-2.519-8.632-3.223-18.366 1.554-20.927 10.405-2.293 7.924-6.673 13.616-10.849 17.501-5.146 4.788-6.775 12.323-3.781 18.682 11.346 24.098 8.812 43.408 4.632 55.439-2.548 7.335.435 15.469 7.193 19.294 4.928 2.79 9.219 6.273 12.91 10.247 5.966-11.579 14.764-38.839-7.815-74.828 0 0 28.248-11.556 21.719-46.371 0 0 30.627 27.205 70.058 10.468-.001.001 41.124 25.766 82.041-5.752z"/></g></svg>