<?xml version="1.0" encoding="UTF-8"?>
<svg xmlns="http://www.w3.org/2000/svg" xmlns:xlink="http://www.w3.org/1999/xlink" width="1024pt" height="1024pt" viewBox="0 0 1024 1024" version="1.1">
<g id="surface1">
<path style=" stroke:none;fill-rule:nonzero;fill:rgb(100%,35.294118%,49.803922%);fill-opacity:1;" d="M 935.988281 216.320312 C 935.988281 216.320312 979.582031 133.59375 920.707031 47.199219 C 865.84375 -16.515625 762.679688 44.109375 762.679688 44.109375 C 762.679688 44.109375 670.820312 -53.234375 587.933594 41.296875 C 587.933594 41.296875 536.703125 -12.828125 436.195312 41.878906 C 404.425781 3.703125 334.421875 -11.832031 283.539062 36.523438 C 143.542969 -20.171875 115.984375 130.4375 115.984375 130.4375 C 1.035156 183.738281 77.695312 307.917969 77.695312 307.917969 C -10.363281 417.214844 109.679688 492.550781 109.679688 492.550781 C 65.941406 528.132812 100.128906 671.597656 211.066406 645.25 C 233.371094 639.953125 184.609375 739.722656 224.296875 766.757812 C 239.742188 777.28125 258.640625 778.683594 272.339844 765.96875 C 300.710938 739.632812 263.8125 654.257812 283.097656 632.023438 C 319.425781 590.132812 307.191406 454.097656 208.027344 430.457031 C 208.027344 430.457031 262.253906 363.15625 199.65625 263.378906 C 199.65625 263.378906 257.972656 239.519531 244.496094 167.644531 C 244.496094 167.644531 307.722656 223.8125 389.128906 189.257812 C 389.128906 189.257812 474.035156 242.449219 558.507812 177.382812 C 558.507812 177.382812 686.691406 237.8125 764.289062 166.886719 C 764.289062 166.886719 743.117188 269.996094 821.929688 306.523438 C 821.929688 306.523438 779.519531 365.367188 806.871094 452.917969 C 739.847656 482.53125 728.203125 534.828125 744.792969 601.3125 C 662.058594 620.070312 658.328125 666.730469 649.460938 691.648438 C 518.199219 606.753906 451.011719 681.273438 422.34375 720.875 C 347.082031 824.847656 464.871094 1024 464.871094 1024 L 518.601562 1024 C 581.605469 953.699219 578.515625 824.847656 578.515625 824.847656 C 578.515625 824.847656 706.664062 908.605469 760.152344 767.351562 C 760.152344 767.351562 916.511719 762.71875 893.679688 597.242188 C 893.679688 597.242188 1000.21875 528.742188 960.3125 404.332031 C 960.308594 404.332031 1014.609375 305.199219 935.988281 216.320312 Z M 935.988281 216.320312 "/>
<path style=" stroke:none;fill-rule:nonzero;fill:rgb(81.568627%,30.196078%,49.803922%);fill-opacity:1;" d="M 890.664062 436.664062 C 883.257812 433.324219 872.945312 440.171875 867.636719 451.953125 C 862.328125 463.738281 864.027344 475.996094 871.433594 479.332031 C 878.839844 482.671875 889.148438 475.824219 894.460938 464.042969 C 899.769531 452.257812 898.070312 440 890.664062 436.664062 Z M 890.664062 436.664062 "/>
<path style=" stroke:none;fill-rule:nonzero;fill:rgb(87.058824%,30.196078%,49.803922%);fill-opacity:1;" d="M 231.441406 438.8125 C 261.691406 489.21875 259.054688 558.902344 234.851562 586.8125 C 212.753906 612.296875 263.882812 717.246094 208.199219 729.09375 C 208.703125 744.882812 212.757812 758.894531 224.300781 766.757812 C 239.746094 777.28125 258.644531 778.683594 272.339844 765.96875 C 300.710938 739.632812 263.816406 654.257812 283.097656 632.023438 C 316.339844 593.691406 308.90625 476.558594 231.441406 438.8125 Z M 231.441406 438.8125 "/>
<path style=" stroke:none;fill-rule:nonzero;fill:rgb(81.568627%,30.196078%,49.803922%);fill-opacity:1;" d="M 935.988281 216.320312 C 935.988281 216.320312 979.582031 133.59375 920.707031 47.199219 C 910.183594 34.976562 897.878906 27.34375 884.867188 22.964844 C 905.269531 63.265625 905.4375 101.3125 900.796875 128.753906 C 896.164062 156.136719 901.097656 184.089844 913.546875 208.914062 C 937.722656 257.113281 931.050781 303.828125 922.679688 332.035156 C 917.234375 350.378906 916.195312 369.742188 919.078125 388.65625 C 928.378906 449.679688 902.382812 494.707031 878.753906 521.863281 C 860.300781 543.070312 849.3125 569.636719 847.199219 597.667969 C 841.714844 670.457031 793.671875 700.722656 756.375 713.28125 C 730.234375 722.082031 707.574219 738.839844 691.59375 761.320312 C 671.648438 789.375 647.164062 800.820312 623.355469 803.59375 C 572.121094 809.558594 529.035156 844.386719 514.503906 893.875 C 505.644531 924.035156 491.847656 954.820312 470.359375 978.792969 L 441.746094 978.792969 C 454.425781 1006.335938 464.871094 1024 464.871094 1024 L 518.601562 1024 C 581.605469 953.699219 578.515625 824.847656 578.515625 824.847656 C 578.515625 824.847656 706.664062 908.605469 760.152344 767.351562 C 760.152344 767.351562 916.511719 762.71875 893.679688 597.242188 C 893.679688 597.242188 1000.21875 528.742188 960.3125 404.332031 C 960.308594 404.332031 1014.609375 305.199219 935.988281 216.320312 Z M 935.988281 216.320312 "/>
<path style=" stroke:none;fill-rule:nonzero;fill:rgb(81.568627%,30.196078%,49.803922%);fill-opacity:1;" d="M 558.507812 177.378906 C 558.507812 177.378906 644.734375 218.015625 718.558594 193.503906 C 716.203125 184.660156 714.839844 175.894531 714.125 167.6875 C 712.585938 149.960938 694.257812 139.027344 677.726562 145.609375 C 629.332031 164.882812 574 153.84375 540.617188 143.488281 C 522.398438 137.835938 502.601562 139.128906 485.691406 147.953125 C 435.503906 174.136719 388.148438 163.839844 361.972656 153.957031 C 348.140625 148.734375 333.113281 147.921875 318.75 151.4375 C 287.171875 159.160156 259.289062 154.132812 238.136719 146.234375 C 220.316406 139.582031 200.21875 149.445312 194.929688 167.71875 C 190.199219 184.078125 181.15625 195.828125 172.535156 203.847656 C 161.910156 213.734375 158.546875 229.289062 164.726562 242.417969 C 188.152344 292.167969 182.921875 332.035156 174.289062 356.871094 C 169.03125 372.015625 175.1875 388.808594 189.140625 396.703125 C 199.316406 402.464844 208.171875 409.65625 215.792969 417.859375 C 228.109375 393.957031 246.273438 337.675781 199.660156 263.375 C 199.660156 263.375 257.976562 239.519531 244.5 167.644531 C 244.5 167.644531 307.730469 223.808594 389.132812 189.253906 C 389.132812 189.257812 474.035156 242.449219 558.507812 177.378906 Z M 558.507812 177.378906 "/>
</g>
</svg>
