<svg id="Capa_1" enable-background="new 0 0 512 512" height="512" viewBox="0 0 512 512" width="512" xmlns="http://www.w3.org/2000/svg"><g><g><g><g><g><g><g><g><g><circle cx="256" cy="256" fill="#ffce00" r="256"/></g></g></g></g></g></g></g></g><path d="m426.501 146.102-64.533 97.427-28.155 2.498-97.506-99.925-30.169 111.254-155.198 13.771 238.684 238.684c125.495-16.464 222.376-123.824 222.376-253.811 0-8.664-.431-17.228-1.271-25.671z" fill="#ffa300"/><g><g><path d="m60 213.141c0-55.726 45.175-100.901 100.901-100.901 43.87 0 81.2 27.997 95.099 67.1 13.899-39.102 51.229-67.1 95.099-67.1 55.726 0 100.901 45.175 100.901 100.901 0 114.767-196 235.608-196 235.608s-196-125.773-196-235.608z" fill="#ff7045"/></g></g><g><g><path d="m351.099 112.241c-43.87 0-81.2 27.997-95.099 67.099v269.409s196-120.841 196-235.608c0-55.725-45.175-100.9-100.901-100.9z" fill="#de4726"/></g></g><g><path d="m242.508 364.632c-.184 0-.367-.003-.551-.01-6.149-.225-11.537-4.182-13.591-9.981l-50.027-141.229-21.832 48.838c-2.414 5.401-7.778 8.878-13.694 8.878h-91.873v-30h82.148l33.171-74.204c2.503-5.6 8.175-9.11 14.293-8.866 6.129.245 11.491 4.198 13.54 9.979l49.903 140.879 53.842-122.671c2.393-5.45 7.781-8.971 13.733-8.971 5.953-.001 11.342 3.518 13.736 8.968l26.686 60.758h113.354v30h-123.149c-5.952 0-11.34-3.519-13.734-8.968l-16.886-38.448-55.336 126.076c-2.399 5.465-7.799 8.971-13.733 8.972z" fill="#fff"/></g><g><path d="m351.992 247-26.686-60.76c-2.394-5.45-7.783-8.969-13.736-8.968-5.952.001-11.341 3.521-13.733 8.971l-41.837 95.321v74.594c.08-.166.166-.328.241-.498l55.336-126.076 16.886 38.448c2.394 5.449 7.782 8.968 13.734 8.968h123.149v-30z" fill="#e9edf5"/></g></g></svg>