<?xml version="1.0" encoding="UTF-8" standalone="no"?>
<svg xmlns:dc="http://purl.org/dc/elements/1.1/" xmlns:cc="http://creativecommons.org/ns#" xmlns:rdf="http://www.w3.org/1999/02/22-rdf-syntax-ns#" xmlns:svg="http://www.w3.org/2000/svg" xmlns="http://www.w3.org/2000/svg" xmlns:sodipodi="http://sodipodi.sourceforge.net/DTD/sodipodi-0.dtd" xmlns:inkscape="http://www.inkscape.org/namespaces/inkscape" viewBox="0 0 64.000001 64.000001" id="svg4364" version="1.1" inkscape:version="0.91 r13725" sodipodi:docname="51 lips lip kiss love sex liplock valentine first.svg">
  <defs id="defs4366"/>
  <sodipodi:namedview id="base" pagecolor="#ffffff" bordercolor="#666666" borderopacity="1.0" inkscape:pageopacity="0.0" inkscape:pageshadow="2" inkscape:zoom="2.8" inkscape:cx="-12.740358" inkscape:cy="-0.73616537" inkscape:document-units="px" inkscape:current-layer="layer1" showgrid="true" units="px" inkscape:snap-bbox="true" inkscape:bbox-paths="true" inkscape:bbox-nodes="true" inkscape:snap-bbox-edge-midpoints="true" inkscape:snap-bbox-midpoints="true" inkscape:window-width="1366" inkscape:window-height="705" inkscape:window-x="-8" inkscape:window-y="-8" inkscape:window-maximized="1">
    <inkscape:grid type="xygrid" id="grid4372"/>
  </sodipodi:namedview>
  
  <g inkscape:label="Layer 1" inkscape:groupmode="layer" id="layer1" transform="translate(0,-988.36216)">
    <g id="g13995" transform="matrix(2,0,0,2,2513.9956,-8963.938)">
      <path style="opacity:1;fill:#ff143a;fill-opacity:1;stroke:none;stroke-width:1;stroke-linecap:round;stroke-linejoin:round" d="m -1227.4978,4992.1505 c 0,0 -5.5,7.5 -13.5,7.5 -8,0 -13.5,-7.5 -13.5,-7.5 3.6269,-5 8.6269,-7.5 10.9179,-7.5 1.0204,3e-4 1.9977,0.4136 2.7109,1.1465 0.7123,-0.732 1.6879,-1.1452 2.707,-1.1465 3.2911,0 7.7774,2.5 10.6642,7.5 z" id="path11856" inkscape:connector-curvature="0" sodipodi:nodetypes="csccccc"/>
      <path sodipodi:nodetypes="csssccczcc" inkscape:connector-curvature="0" id="path12043" d="m -1234.3709,4992.1252 c -0.2512,0.1231 -0.5078,0.2412 -0.7695,0.3534 -1.6406,0.7031 -3.4843,1.1719 -5.4843,1.1719 -2,0 -3.8438,-0.4688 -5.4844,-1.1719 -0.4962,-0.2126 -0.9738,-0.4467 -1.4315,-0.6958 l -0.084,-0.047 3,-2 c 0,0 2,0.5 3.5,0.5 1.5,0 3.5,-0.5 3.5,-0.5 1.1308,0.7564 2.3365,1.4207 3.2538,2.3898 z" style="opacity:1;fill:#e8dfe4;fill-opacity:1;stroke:none;stroke-width:1;stroke-linecap:round;stroke-linejoin:round"/>
      <path style="opacity:0.4;fill:none;fill-opacity:1;stroke:#ffffff;stroke-width:1;stroke-linecap:round;stroke-linejoin:round" d="m -1251.9218,4991.4449 c 0.206,-0.2282 0.4148,-0.4484 0.6256,-0.6603 m 1.2823,-1.174 c 0.2154,-0.1793 0.4312,-0.3505 0.6465,-0.5136 0.4306,-0.3261 0.859,-0.6197 1.2786,-0.8806 0.8394,-0.5218 1.6435,-0.9132 2.3585,-1.1741 0.7151,-0.2608 1.3411,-0.3913 1.8243,-0.3913" id="path12045" inkscape:connector-curvature="0" sodipodi:nodetypes="cccsssc"/>
      <path style="opacity:1;fill:#d30045;fill-opacity:1;stroke:none;stroke-width:1;stroke-linecap:round;stroke-linejoin:round" d="m -1243.5801,4984.6497 c -0.303,0 -0.6585,0.051 -1.0469,0.1386 0.6603,0.1734 2.2614,1.2494 2.7467,1.7481 0.5149,-0.2973 0.6868,-0.4016 1.0019,-0.7167 -0.8066,-0.9577 -2.0981,-1.1699 -2.7017,-1.17 z m 5.418,0 c -0.2818,3e-4 -0.5576,0.04 -0.8281,0.1015 3.1248,0.5057 6.935,2.9693 9.4922,7.3985 0,0 -5.0486,6.8589 -12.5,7.4433 0.3311,0.026 0.6595,0.057 1,0.057 8,0 13.5,-7.5 13.5,-7.5 -2.8868,-5 -7.373,-7.5 -10.6641,-7.5 z" id="path13169" inkscape:connector-curvature="0" sodipodi:nodetypes="cccccccccsccc"/>
    </g>
  </g>

	<metadata>
		<rdf:RDF xmlns:rdf="http://www.w3.org/1999/02/22-rdf-syntax-ns#" xmlns:rdfs="http://www.w3.org/2000/01/rdf-schema#" xmlns:dc="http://purl.org/dc/elements/1.1/">
			<rdf:Description about="https://iconscout.com/legal#licenses" dc:title="51 lips lip kiss love sex liplock valentine first" dc:description="51 lips lip kiss love sex liplock valentine first" dc:publisher="Iconscout" dc:date="2017-01-24" dc:format="image/svg+xml" dc:language="en">
				<dc:creator>
					<rdf:Bag>
						<rdf:li>Jemis Mali</rdf:li>
					</rdf:Bag>
				</dc:creator>
			</rdf:Description>
		</rdf:RDF>
    </metadata></svg>
