<?xml version="1.0" encoding="iso-8859-1"?>
<!-- Generator: Adobe Illustrator 19.0.0, SVG Export Plug-In . SVG Version: 6.00 Build 0)  -->
<svg xmlns="http://www.w3.org/2000/svg" xmlns:xlink="http://www.w3.org/1999/xlink" version="1.1" id="Capa_1" x="0px" y="0px" viewBox="0 0 503.165 503.165" style="enable-background:new 0 0 503.165 503.165;" xml:space="preserve">
<g>
	<path style="fill:#FFE100;" d="M385.76,436.4H41.93c-13.896,0-25.158-11.282-25.158-25.203V175.973   c0-13.92,11.263-25.203,25.158-25.203H385.76c13.896,0,25.158,11.282,25.158,25.203v235.224   C410.918,425.118,399.655,436.4,385.76,436.4"/>
	<path style="fill:#FFFFFF;" d="M33.544,411.197V175.973c0-13.92,11.263-25.203,25.158-25.203H33.544   c-13.896,0-25.158,11.282-25.158,25.203v235.224c0,13.92,11.263,25.203,25.158,25.203h25.158   C44.807,436.4,33.544,425.118,33.544,411.197"/>
	<g>
		<path style="fill:#FDCC00;" d="M164.774,300.906c25.091,24.085,64.665,24.085,89.756,0l148.845-142.899    c-4.537-4.469-10.751-7.233-17.611-7.233H33.549c-6.868,0-13.082,2.764-17.619,7.233L164.774,300.906z"/>
		<path style="fill:#FDCC00;" d="M427.69,108.767H75.475c-13.896,0-25.158,11.282-25.158,25.203v16.802H385.76    c13.896,0,25.158,11.282,25.158,25.203v218.422h16.772c13.896,0,25.158-11.282,25.158-25.203V133.969    C452.848,120.049,441.586,108.767,427.69,108.767"/>
	</g>
	<path style="fill:#FFA800;" d="M469.62,66.762H117.405c-13.896,0-25.158,11.282-25.158,25.203v16.802H427.69   c13.896,0,25.158,11.282,25.158,25.203v218.422h16.772c13.896,0,25.158-11.282,25.158-25.203V91.965   C494.779,78.045,483.516,66.762,469.62,66.762"/>
	<g>
		<path d="M170.572,294.84c21.913,21.036,56.245,21.036,78.158,0l140.853-135.229c-1.233-0.286-2.524-0.437-3.824-0.437H33.543    c-1.3,0-2.583,0.151-3.824,0.437L170.58,294.84H170.572z M209.651,327.427c-18.24,0-36.463-6.822-50.677-20.456h-0.008    L10.121,164.081c-1.627-1.579-2.558-3.747-2.575-6.015c-0.017-2.277,0.889-4.452,2.499-6.049    c6.323-6.225,14.667-9.644,23.498-9.644h352.215c8.831,0,17.175,3.419,23.498,9.644c1.61,1.596,2.524,3.772,2.507,6.049    c-0.017,2.268-0.956,4.436-2.583,6.015l-148.845,142.89C246.122,320.606,227.891,327.427,209.651,327.427L209.651,327.427z"/>
		<path d="M29.72,427.556c1.233,0.294,2.524,0.445,3.824,0.445H385.76c1.3,0,2.591-0.151,3.824-0.445L262.157,305.223l-1.82,1.747    c-28.437,27.278-72.942,27.278-101.363,0l-1.828-1.747L29.72,427.556z M385.76,444.803H33.544c-8.831,0-17.175-3.428-23.498-9.653    c-1.61-1.596-2.516-3.772-2.507-6.04c0.017-2.277,0.956-4.444,2.583-6.015l141.222-135.573c3.262-3.117,8.369-3.117,11.615,0    l7.623,7.326c21.896,21.027,56.237,21.027,78.15-0.008l7.615-7.317c3.245-3.117,8.361-3.117,11.615,0l141.222,135.573    c1.627,1.571,2.566,3.738,2.583,6.015c0.017,2.268-0.897,4.444-2.507,6.04C402.934,441.376,394.59,444.803,385.76,444.803    L385.76,444.803z"/>
		<path d="M419.304,385.995h8.386c9.25,0,16.772-7.536,16.772-16.802V133.969c0-9.266-7.522-16.802-16.772-16.802H75.475    c-9.25,0-16.772,7.536-16.772,16.802v8.401H385.76c18.5,0,33.544,15.071,33.544,33.603V385.995z M427.69,402.797h-16.772    c-4.638,0-8.386-3.764-8.386-8.401V175.973c0-9.266-7.522-16.802-16.772-16.802H50.316c-4.638,0-8.386-3.764-8.386-8.401v-16.802    c0-18.532,15.045-33.603,33.544-33.603H427.69c18.5,0,33.544,15.071,33.544,33.603v235.224    C461.234,387.725,446.19,402.797,427.69,402.797L427.69,402.797z"/>
		<path d="M461.234,343.991h8.386c9.25,0,16.772-7.536,16.772-16.802V91.965c0-9.266-7.522-16.802-16.772-16.802H117.405    c-9.25,0-16.772,7.536-16.772,16.802v8.401H427.69c18.5,0,33.544,15.071,33.544,33.603V343.991z M469.62,360.792h-16.772    c-4.637,0-8.386-3.764-8.386-8.401V133.969c0-9.266-7.522-16.802-16.772-16.802H92.247c-4.637,0-8.386-3.764-8.386-8.401V91.965    c0-18.532,15.045-33.603,33.544-33.603H469.62c18.5,0,33.544,15.071,33.544,33.603v235.224    C503.165,345.721,488.12,360.792,469.62,360.792L469.62,360.792z"/>
		<path d="M16.772,301.986c0,4.637-3.757,8.401-8.386,8.401S0,306.624,0,301.986s3.757-8.401,8.386-8.401    S16.772,297.349,16.772,301.986"/>
		<path d="M385.76,444.801H33.544C15.045,444.801,0,429.73,0,411.197V335.59c0-4.637,3.749-8.401,8.386-8.401    s8.386,3.764,8.386,8.401v75.608c0,9.266,7.522,16.802,16.772,16.802H385.76c9.25,0,16.772-7.536,16.772-16.802V175.973    c0-9.266-7.522-16.802-16.772-16.802H33.544c-9.25,0-16.772,7.536-16.772,16.802v92.409c0,4.637-3.749,8.401-8.386,8.401    S0,273.02,0,268.383v-92.409c0-18.532,15.045-33.603,33.544-33.603H385.76c18.5,0,33.544,15.071,33.544,33.603v235.224    C419.304,429.73,404.259,444.801,385.76,444.801"/>
	</g>
</g>
<g>
</g>
<g>
</g>
<g>
</g>
<g>
</g>
<g>
</g>
<g>
</g>
<g>
</g>
<g>
</g>
<g>
</g>
<g>
</g>
<g>
</g>
<g>
</g>
<g>
</g>
<g>
</g>
<g>
</g>
</svg>
