<svg height="512pt" viewBox="0 -32 512.00011 512" width="512pt" xmlns="http://www.w3.org/2000/svg"><g fill-rule="evenodd"><path d="m35.828125 26.324219v395.355469c0 10.300781 8.445313 18.765624 18.789063 18.765624h38.597656v-432.886718h-38.597656c-10.34375 0-18.789063 8.433594-18.789063 18.765625zm0 0" fill="#64b0d9"/><path d="m386.160156 7.558594h-292.941406v432.886718h292.941406c10.34375 0 18.789063-8.464843 18.789063-18.765624 0-110.261719 0-132.058594 0-395.355469 0-10.332031-8.445313-18.765625-18.789063-18.765625zm0 0" fill="#e6e6e6"/><path d="m352.152344 295.90625-7.792969 47.132812c-.621094 3.960938.539063 7.359376 2.75 9.652344 3.402344 3.539063 9.238281 4.332032 14.566406.058594l36.359375-31.113281-11.59375-36.289063zm0 0" fill="#fcc368"/><path d="m491.046875 102.617188c-12.613281-7.078126-28.738281-2.550782-35.824219 10.046874l-4.816406 8.523438 9.378906 35.074219 36.5-9.316407 4.789063-8.519531c7.03125-12.484375 2.695312-28.648437-10.027344-35.808593zm0 0" fill="#64b0d9"/><path d="m450.40625 121.1875-45.457031 80.820312-52.796875 93.898438 45.882812 25.730469 6.914063-12.3125 91.335937-162.347657v-.03125zm0 0" fill="#f78411"/><path d="m370.515625 26.324219v236.914062l34.433594-61.230469v-175.683593c0-10.332031-8.445313-18.765625-18.789063-18.765625h-34.433594c10.34375 0 18.789063 8.433594 18.789063 18.765625zm0 0" fill="#c2c7cc"/><path d="m398.035156 321.636719-27.519531 23.550781v76.492188c0 10.300781-8.445313 18.765624-18.789063 18.765624h34.433594c10.34375 0 18.789063-8.464843 18.789063-18.765624v-112.355469zm0 0" fill="#c2c7cc"/><path d="m382.390625 312.859375 15.644531 8.777344 6.914063-12.3125 91.335937-162.347657v-.03125l-15.640625-8.773437v.027344zm0 0" fill="#f74311"/><path d="m477.839844 99.277344c11.902344 4.640625 12.324218 21.992187 7.621094 30.375l-4.816407 8.519531 15.640625 8.777344 4.789063-8.523438c7.027343-12.484375 2.691406-28.648437-10.03125-35.808593-4.164063-2.320313-8.726563-3.398438-13.203125-3.339844zm0 0" fill="#4a83c9"/><path d="m382.390625 312.859375-36.359375 31.140625c-.59375.480469-1.21875.90625-1.839844 1.246094.027344 3.027344 1.132813 5.605468 2.917969 7.445312 3.402344 3.539063 9.238281 4.332032 14.566406.058594l8.839844-7.558594 27.519531-23.554687zm0 0" fill="#eda93b"/><path d="m67.683594 7.558594h25.535156v432.886718h-25.535156zm0 0" fill="#4a83c9"/></g><path d="m510.753906 116.511719c-2.425781-8.761719-8.105468-16.035157-16.011718-20.484375-16.273438-9.136719-36.957032-3.332032-46.097657 12.917968l-4.816406 8.523438c-.003906 0-.003906.003906-.003906.007812-.003907 0-.003907.003907-.007813.003907l-31.308594 55.683593v-146.839843c0-14.515625-11.820312-26.324219-26.347656-26.324219h-126.5625c-4.175781 0-7.558594 3.382812-7.558594 7.558594 0 4.171875 3.382813 7.554687 7.558594 7.554687h126.5625c6.195313 0 11.234375 5.03125 11.234375 11.214844v173.710937l-51.828125 92.160157c-.023437.042969-.042968.085937-.0625.125-.070312.132812-.136718.265625-.203125.402343-.042969.09375-.082031.183594-.121093.28125-.054688.128907-.105469.257813-.152344.394532-.035156.109375-.074219.214844-.105469.328125-.035156.121093-.070313.246093-.101563.367187-.03125.128906-.058593.253906-.082031.382813-.011719.0625-.03125.125-.042969.191406l-7.796874 47.171875c-.179688 1.105469-.253907 2.207031-.253907 3.289062h-189.074219c-4.171874 0-7.554687 3.382813-7.554687 7.558594 0 4.171875 3.382813 7.558594 7.554687 7.558594h196.855469c.3125.210938.632813.417969.960938.613281 2.699219 1.570313 5.660156 2.347657 8.667969 2.347657 4.238281 0 8.558593-1.542969 12.335937-4.558594.066406-.050782.132813-.105469.199219-.164063l30.804687-26.355469v89.546876c0 6.179687-5.039062 11.210937-11.234375 11.210937h-285.386718v-417.777344h122.238281c4.171875 0 7.554687-3.382812 7.554687-7.554687 0-4.175782-3.382812-7.558594-7.554687-7.558594h-168.394531c-14.527344 0-26.34375 11.808594-26.34375 26.324219v30.351562c-18.582032 1.953125-28.273438 13.878907-28.273438 25.675781 0 7.285157 3.640625 14.238282 9.988281 19.070313 4.832031 3.679687 11.066407 6.058594 18.285157 7.019531v41.28125c-18.582032 1.953125-28.273438 13.878906-28.273438 25.679688 0 7.285156 3.640625 14.234375 9.988281 19.066406 4.832031 3.679688 11.066407 6.0625 18.285157 7.023438v41.25c-18.582032 1.953124-28.273438 13.878906-28.273438 25.679687 0 7.285156 3.640625 14.234375 9.988281 19.066406 4.832031 3.683594 11.066407 6.0625 18.285157 7.023438v39.398437c-17.191407 2.605469-26.136719 14.0625-26.136719 25.402344 0 7.285156 3.636719 14.238281 9.984375 19.070312 4.351562 3.316407 9.835937 5.570313 16.152344 6.691407v36.601562c0 14.515625 11.816406 26.324219 26.34375 26.324219h331.542968c14.527344 0 26.347656-11.808594 26.347656-26.324219v-110.355469l29.351563-52.191406c2.046875-3.640625.753906-8.246094-2.882813-10.292968-3.636718-2.042969-8.246093-.753907-10.289062 2.882812l-30.242188 53.773438c-.070312.117187-.136718.234374-.199218.355468l-3.097656 5.507813-32.699219-18.339844 90.84375-161.542969 32.699219 18.363282-42.511719 75.554687c-2.046875 3.640625-.757813 8.246094 2.878906 10.292969 3.640625 2.046875 8.246094.757812 10.292969-2.878906l46.117187-81.964844c.035157-.058594.078125-.109375.109375-.167969l4.78125-8.539063c4.402344-7.8125 5.5-16.914062 3.09375-25.621093zm-491.609375-27.117188c-2.597656-1.976562-4.03125-4.476562-4.03125-7.042969 0-4.519531 4.511719-9.074218 13.160157-10.429687v21.226563c-4.453126-.855469-7.34375-2.390626-9.128907-3.753907zm0 93.050781c-2.597656-1.980468-4.03125-4.480468-4.03125-7.042968 0-4.523438 4.511719-9.078125 13.160157-10.433594v21.226562c-4.453126-.855468-7.34375-2.390624-9.128907-3.75zm0 93.019532c-2.597656-1.976563-4.03125-4.480469-4.03125-7.042969 0-4.523437 4.511719-9.078125 13.160157-10.433594v21.230469c-4.453126-.855469-7.34375-2.394531-9.128907-3.753906zm2.136719 90.898437c-2.597656-1.980469-4.03125-4.484375-4.03125-7.050781 0-4.132812 3.769531-8.292969 11.023438-10.011719v20.328125c-3.269532-.882812-5.507813-2.136718-6.992188-3.265625zm22.105469 55.316407v-35.785157h17.210937c4.171875 0 7.554688-3.382812 7.554688-7.554687 0-4.175782-3.382813-7.558594-7.554688-7.558594h-17.210937v-75.785156h15.058593c4.171876 0 7.554688-3.382813 7.554688-7.554688 0-4.175781-3.382812-7.558594-7.554688-7.558594h-15.058593v-77.90625h15.058593c4.171876 0 7.554688-3.382812 7.554688-7.558593s-3.382812-7.558594-7.554688-7.558594h-15.058593v-77.933594h15.058593c4.171876 0 7.554688-3.382812 7.554688-7.558593 0-4.171876-3.382812-7.554688-7.554688-7.554688h-15.058593v-67.488281c0-6.179688 5.039062-11.210938 11.230469-11.210938h31.042968v417.777344h-31.042968c-6.191407 0-11.230469-5.03125-11.230469-11.210937zm341.511719-98.746094-28.023438 23.976562c-.617188.480469-1.222656.808594-1.792969.996094-.863281-1.054688-2.003906-1.859375-3.3125-2.328125-.039062-.40625-.027343-.84375.046875-1.308594l6.035156-36.503906zm75.816406-204.625 1.09375-1.9375c5.066406-9.007813 16.523437-12.222656 25.527344-7.171875 4.363281 2.457031 7.503906 6.484375 8.847656 11.339843 1.335937 4.832032.734375 9.867188-1.699219 14.195313l-1.082031 1.925781zm0 0"/><path d="m355.894531 83.480469h-208.324219c-4.171874 0-7.554687 3.382812-7.554687 7.558593 0 4.171876 3.382813 7.554688 7.554687 7.554688h208.324219c4.175781 0 7.558594-3.382812 7.558594-7.554688 0-4.175781-3.386719-7.558593-7.558594-7.558593zm0 0"/><path d="m355.894531 148.902344h-208.324219c-4.171874 0-7.554687 3.382812-7.554687 7.558594 0 4.171874 3.382813 7.554687 7.554687 7.554687h208.324219c4.175781 0 7.558594-3.382813 7.558594-7.554687 0-4.175782-3.386719-7.558594-7.558594-7.558594zm0 0"/><path d="m363.449219 221.878906c0-4.175781-3.382813-7.558594-7.554688-7.558594h-208.324219c-4.171874 0-7.554687 3.382813-7.554687 7.558594 0 4.175782 3.382813 7.558594 7.554687 7.558594h208.324219c4.171875-.003906 7.554688-3.386719 7.554688-7.558594zm0 0"/><path d="m147.570312 279.714844c-4.171874 0-7.554687 3.382812-7.554687 7.554687 0 4.175781 3.382813 7.558594 7.554687 7.558594h166.042969c4.171875 0 7.554688-3.382813 7.554688-7.558594 0-4.171875-3.382813-7.554687-7.554688-7.554687zm0 0"/></svg>