<svg id="Capa_1" enable-background="new 0 0 512.02 512.02" height="512" viewBox="0 0 512.02 512.02" width="512" xmlns="http://www.w3.org/2000/svg"><g><g><g><path d="m121.676 361.246-107.903 107.903c-7.872 7.872-8.455 20.697-.868 28.843 7.965 8.552 21.361 8.732 29.554.539l108.251-108.251c11.242-11.242 25.415-19.101 40.906-22.682l24.896-5.755c25.757-5.954 49.324-19.022 68.017-37.716l199.9-199.9c26.703-26.703 26.703-69.997 0-96.7-26.703-26.703-69.997-26.703-96.7 0l-199.9 199.9c-18.693 18.693-31.761 42.26-37.716 68.017l-5.755 24.896c-3.581 15.491-11.44 29.664-22.682 40.906z" fill="#f9f3f1"/></g><g><path d="m56.844 426.078 29.034 29.034-43.419 43.419c-8.017 8.017-21.016 8.017-29.034 0-8.017-8.017-8.017-21.016 0-29.034z" fill="#f9f3f1"/></g></g><g><g><path d="m484.429 124.226-199.897 199.897c-18.695 18.695-42.266 31.764-68.025 37.719l-24.89 5.755c-15.497 3.577-29.666 11.441-40.907 22.682l-108.25 108.252c-8.193 8.193-21.592 8.013-29.556-.54-2.448-2.628-4.047-5.745-4.816-9.023 6.724 1.639 14.128-.17 19.384-5.426l108.252-108.252c11.241-11.241 25.419-19.104 40.907-22.682l24.89-5.755c25.759-5.955 49.33-19.024 68.025-37.719l199.897-199.897c24.16-24.15 26.468-61.88 6.914-88.628 2.828 2.058 5.526 4.367 8.073 6.915 26.698 26.709 26.698 70.004-.001 96.702z" fill="#efe2dd"/></g><g><path d="m56.844 426.078 29.034 29.034-43.419 43.419c-8.017 8.017-21.016 8.017-29.034 0-8.017-8.017-8.017-21.016 0-29.034z" fill="#f9f3f1"/></g></g><g><path d="m56.844 426.078 29.034 29.034-43.419 43.419c-8.017 8.017-21.016 8.017-29.034 0-8.017-8.017-8.017-21.016 0-29.034z" fill="#8d9ca8"/></g><g><g><path d="m85.874 455.107-43.414 43.424c-1.249 1.249-2.628 2.308-4.087 3.167-3.017 1.777-6.215 2.708-9.695 2.829-4.043.141-8.462-.998-11.838-3.249-2.509-1.673-4.769-3.851-6.335-6.435-1.129-1.839-1.938-3.827-2.418-5.875 6.724 1.639 14.128-.17 19.384-5.426l43.425-43.415z" fill="#7a8c98"/></g></g><g><path d="m484.428 27.524c26.707 26.707 26.707 70.003.007 96.703l-6.67 6.67-96.703-96.703 6.67-6.67c13.354-13.354 30.848-20.023 48.348-20.03 17.501.007 35.002 6.683 48.348 20.03z" fill="#b6c4cf"/></g><g><path d="m484.439 124.226-6.674 6.675-14.978-14.978 6.674-6.675c24.15-24.15 26.458-61.87 6.914-88.618 2.818 2.048 5.516 4.357 8.053 6.895 26.71 26.708 26.71 70.003.011 96.701z" fill="#9facba"/></g><g><path d="m340.96 229.162-62.697 62.697c-16.062 16.062-42.103 16.062-58.165 0-16.062-16.062-16.062-42.103 0-58.165l62.697-62.697c16.062-16.062 42.103-16.062 58.165 0 16.061 16.062 16.061 42.103 0 58.165z" fill="#b6c4cf"/></g><g><path d="m353.007 200.084c0 10.521-4.017 21.043-12.05 29.076l-62.699 62.699c-16.057 16.057-42.096 16.057-58.163 0-2.148-2.148-4.007-4.476-5.575-6.934 15.917 10.192 37.32 8.333 51.228-5.575l62.699-62.699c8.033-8.033 12.05-18.555 12.05-29.076 0-7.714-2.158-15.437-6.475-22.162 2.458 1.569 4.786 3.437 6.934 5.585 8.034 8.024 12.051 18.555 12.051 29.086z" fill="#9facba"/></g><g><path d="m319.836 216.184-54.552 54.552c-2.47 2.47-6.474 2.47-8.944 0l-15.12-15.12c-2.47-2.47-2.47-6.474 0-8.944l54.552-54.552c2.47-2.47 6.474-2.47 8.944 0l15.12 15.12c2.469 2.47 2.469 6.474 0 8.944z" fill="#f9f3f1"/></g><g><path d="m319.834 216.181-54.546 54.556c-2.478 2.468-6.475 2.468-8.943 0l-12.22-12.21c2.468 2.448 6.465 2.438 8.923-.02l54.556-54.556c2.468-2.468 2.468-6.475 0-8.943l12.23 12.23c2.468 2.468 2.468 6.475 0 8.943z" fill="#efe2dd"/></g><g><circle cx="387.272" cy="124.684" fill="#b6c4cf" r="24.689"/></g><g><path d="m404.734 142.142c-9.642 9.642-25.279 9.642-34.921 0-6.495-6.495-8.613-15.717-6.345-23.98.979 1.589 2.158 3.097 3.537 4.476 9.642 9.642 25.269 9.642 34.912 0 3.137-3.147 5.266-6.924 6.345-10.931 5.905 9.512 4.726 22.171-3.528 30.435z" fill="#9facba"/></g><g><path d="m103.502 426.891-17.623 17.623-18.436-18.436 59.533-59.532c12.248-12.249 20.784-27.643 24.684-44.516l5.756-24.897c5.644-24.416 17.993-46.687 35.713-64.406l129.11-129.11c2.926-2.927 2.926-7.672 0-10.599-2.927-2.925-7.671-2.925-10.599 0l-129.11 129.11c-19.707 19.707-33.44 44.475-39.718 71.628l-5.756 24.898c-3.267 14.136-10.417 27.032-20.679 37.293l-107.903 107.902c-10.736 10.737-11.209 28.345-1.052 39.25 2.634 2.828 5.835 5.115 9.384 6.651 10.423 4.51 22.855 2.176 30.952-5.92.003-.003 66.343-66.342 66.343-66.342 2.926-2.927 2.926-7.671 0-10.599-2.927-2.923-7.671-2.925-10.599.002zm-66.343 66.341c-2.523 2.523-5.887 3.86-9.45 3.816-3.568-.063-6.878-1.542-9.32-4.163-4.721-5.069-4.414-13.34.683-18.437l37.772-37.772 18.435 18.436z"/><path d="m489.727 22.224c-5.372-5.371-11.408-9.838-17.925-13.324-4.69-2.509-9.634-4.491-14.751-5.954-6.734-1.927-13.774-2.943-20.974-2.946-16.972-.007-33.502 5.699-46.826 16.195-2.369 1.866-4.653 3.865-6.818 6.029l-46.15 46.15c-2.926 2.927-2.926 7.672 0 10.599 2.927 2.925 7.672 2.925 10.599 0l34.18-34.18 86.102 86.101-187.934 187.933c-17.719 17.72-39.991 30.069-64.406 35.713l-24.897 5.756c-16.876 3.902-32.269 12.437-44.517 24.684l-17.456 17.456c-2.927 2.927-2.927 7.672 0 10.599 1.464 1.463 3.382 2.194 5.299 2.194s3.836-.732 5.299-2.194l17.457-17.457c10.26-10.26 23.156-17.412 37.294-20.679l24.897-5.756c27.153-6.277 51.921-20.011 71.629-39.718l199.906-199.9c29.58-29.58 29.577-77.716-.008-107.301zm-10.597 96.703-1.367 1.368-86.102-86.101c1.174-1.174 2.341-2.351 3.57-3.465 5.411-4.906 11.749-8.85 18.561-11.527 7.006-2.753 14.533-4.209 22.287-4.209 16.263 0 31.552 6.334 43.051 17.833 23.738 23.737 23.738 62.363 0 86.101z"/><path d="m311.877 151.456c-12.988 0-25.198 5.058-34.382 14.241l-62.696 62.698c-9.184 9.184-14.242 21.394-14.242 34.382 0 12.987 5.059 25.198 14.242 34.382 9.479 9.479 21.929 14.217 34.381 14.217 12.451 0 24.903-4.739 34.382-14.217l62.697-62.698c9.183-9.184 14.241-21.395 14.241-34.382 0-12.988-5.058-25.198-14.241-34.382-9.184-9.183-21.395-14.241-34.382-14.241zm23.783 72.406-62.696 62.698c-13.117 13.115-34.455 13.112-47.568-.001-6.353-6.352-9.852-14.798-9.852-23.783 0-8.984 3.499-17.43 9.853-23.782l62.697-62.698c6.557-6.557 15.17-9.836 23.783-9.836s17.226 3.279 23.783 9.836c13.115 13.114 13.115 34.452 0 47.566z"/><path d="m310.016 186.822c-2.61-2.61-6.081-4.048-9.772-4.048-3.69 0-7.16 1.437-9.771 4.047l-54.551 54.551c-5.387 5.388-5.387 14.155 0 19.543l15.121 15.12c2.694 2.693 6.232 4.039 9.77 4.039 3.539 0 7.077-1.347 9.771-4.04l54.552-54.551c5.387-5.388 5.387-14.155-.001-19.543zm-49.204 77.787-13.466-13.466 52.897-52.897 13.466 13.466z"/><path d="m364.514 101.928c-12.547 12.548-12.547 32.965 0 45.514 6.274 6.274 14.515 9.41 22.757 9.41s16.484-3.136 22.758-9.41c12.547-12.548 12.547-32.965 0-45.514 0 0 0 0 0-.001-12.548-12.547-32.966-12.547-45.515.001zm34.916 34.915c-6.703 6.704-17.614 6.705-24.317 0-6.705-6.704-6.705-17.613 0-24.317 3.352-3.353 7.755-5.029 12.158-5.029 4.404 0 8.807 1.676 12.159 5.028 6.705 6.705 6.705 17.614 0 24.318z"/></g></g></svg>