<?xml version="1.0" encoding="iso-8859-1"?>
<!-- Generator: Adobe Illustrator 23.1.1, SVG Export Plug-In . SVG Version: 6.00 Build 0)  -->
<svg version="1.1" id="_x31_-outline-expand" xmlns="http://www.w3.org/2000/svg" xmlns:xlink="http://www.w3.org/1999/xlink"
	 x="0px" y="0px" viewBox="0 0 64 64" style="enable-background:new 0 0 64 64;" xml:space="preserve">
<path style="fill:#F2DAAE;" d="M5,61V48L3,34V21c0-9.941,8.059-18,18-18s18,8.059,18,18l5,13h-6v4h-3c-2.209,0-4,1.791-4,4
	s1.791,4,4,4h3v4H24v11H5z"/>
<path style="fill:#EFBC2E;" d="M21,3C11.059,3,3,11.059,3,21v13h2c4.418,0,8-3.582,8-8c-2.209,0-4-1.791-4-4s1.791-4,4-4v-5h20
	c5.523,0,10-4.477,10-10H21z"/>
<rect x="55" y="60" style="fill:#62C4C3;" width="2" height="2"/>
<path style="fill:#62C4C3;" d="M57,58h-2v-6c0-7.168-5.832-13-13-13h-1v-2h1c8.271,0,15,6.729,15,15V58z"/>
<rect x="51" y="57" style="fill:#62C4C3;" width="2" height="5"/>
<path style="fill:#62C4C3;" d="M53,55h-2v-3c0-4.962-4.038-9-9-9h-1v-2h1c6.065,0,11,4.935,11,11V55z"/>
<path style="fill:#62C4C3;" d="M49,62h-2V52c0-2.757-2.243-5-5-5h-1v-2h1c3.86,0,7,3.14,7,7V62z"/>
<polygon style="fill:#3A4249;" points="35.707,20.707 34.293,19.293 32.5,21.086 30.707,19.293 29.293,20.707 31.086,22.5 
	29.293,24.293 30.707,25.707 32.5,23.914 34.293,25.707 35.707,24.293 33.914,22.5 "/>
<polygon style="fill:#E0C494;" points="24,50 19,50 24,52 "/>
</svg>
